<svg width="18" height="16" viewBox="0 0 18 16" fill="none" xmlns="http://www.w3.org/2000/svg">
<path d="M0.214394 3.42576C-0.0714648 3.14091 -0.0714648 2.6803 0.214394 2.39848L2.40395 0.213636C2.68981 -0.0712121 3.15205 -0.0712121 3.43487 0.213636C3.71769 0.498485 3.72073 0.959091 3.43487 1.24091L2.49214 2.1803H4.55094H14.8388C15.9123 2.1803 16.7851 3.05 16.7851 4.1197V9.5197L16.63 9.36515C15.7755 8.51364 14.3887 8.51364 13.5342 9.36515C12.707 10.1894 12.6797 11.5045 13.4491 12.3621H15.5079L14.5651 11.4227C14.2793 11.1379 14.2793 10.6773 14.5651 10.3955C14.851 10.1136 15.3132 10.1106 15.596 10.3955L17.7856 12.5773C18.0715 12.8621 18.0715 13.3227 17.7856 13.6045L15.596 15.7864C15.3102 16.0712 14.8479 16.0712 14.5651 15.7864C14.2823 15.5015 14.2793 15.0409 14.5651 14.7591L15.5079 13.8197H3.15814C2.08464 13.8197 1.21186 12.95 1.21186 11.8803V6.4803L1.36695 6.63485C2.22149 7.48636 3.60821 7.48636 4.46275 6.63485C5.28991 5.81061 5.31728 4.49545 4.5479 3.63788H2.4891L3.43183 4.57727C3.71769 4.86212 3.71769 5.32273 3.43183 5.60455C3.14597 5.88636 2.68373 5.88939 2.40091 5.60455L0.214394 3.42576ZM11.9225 8.00152C11.9225 7.22998 11.6149 6.49004 11.0674 5.94448C10.5199 5.39892 9.77732 5.09242 9.00304 5.09242C8.22877 5.09242 7.4862 5.39892 6.93871 5.94448C6.39121 6.49004 6.08363 7.22998 6.08363 8.00152C6.08363 8.77305 6.39121 9.51299 6.93871 10.0586C7.4862 10.6041 8.22877 10.9106 9.00304 10.9106C9.77732 10.9106 10.5199 10.6041 11.0674 10.0586C11.6149 9.51299 11.9225 8.77305 11.9225 8.00152ZM14.5986 6.04697C14.7324 6.06212 14.8419 5.95303 14.8419 5.8197V4.36515C14.8419 4.23182 14.7324 4.12273 14.5986 4.12273H13.1389C13.0051 4.12273 12.8926 4.23182 12.9108 4.36515C13.0203 5.24394 13.7197 5.93788 14.5986 6.04697ZM3.4075 9.95606C3.2737 9.94091 3.16422 10.05 3.16422 10.1833V11.6379C3.16422 11.7712 3.2737 11.8803 3.4075 11.8803H4.86721C5.00101 11.8803 5.11353 11.7712 5.09529 11.6379C4.98581 10.7591 4.28637 10.0652 3.4075 9.95606Z" fill="#FECD08"/>
</svg>
